<svg width="60" height="60" viewBox="0 0 60 60" fill="none" xmlns="http://www.w3.org/2000/svg">
<path d="M21.269 47.8235C21.269 49.2042 20.1498 50.3235 18.769 50.3235H7.50049C6.11978 50.3235 5.00049 49.2042 5.00049 47.8235V38.7161C5.00049 35.4601 5.59543 32.0841 6.77686 28.5911L6.77783 28.5881L7.01025 27.9299C8.20018 24.6487 9.76765 21.5451 11.7114 18.6194V18.6174L12.0513 18.1174C13.759 15.635 15.6302 13.4644 17.6655 11.6086L17.8257 11.4749C18.6507 10.8456 19.785 10.8386 20.6431 11.4104L26.6694 15.426L26.8735 15.5774C27.7796 16.3219 28.0371 17.5961 27.5376 18.6448L27.4194 18.8655C25.8007 21.5607 24.409 24.3541 23.2476 27.2463L23.2485 27.2473C21.8966 30.6653 21.2342 34.4484 21.269 38.6028V47.8235ZM48.1489 47.8235C48.1489 49.2042 47.0296 50.3235 45.6489 50.3235H34.3804C32.9997 50.3235 31.8804 49.2042 31.8804 47.8235V38.7161C31.8804 35.4601 32.4743 32.0841 33.6558 28.5911L33.6567 28.5881L33.8901 27.9299C35.08 24.6488 36.6467 21.545 38.5903 18.6194L38.5913 18.6174L38.9312 18.1174C40.6389 15.6351 42.5092 13.4643 44.5444 11.6086L44.7056 11.4749C45.5305 10.8458 46.665 10.8387 47.5229 11.4104L53.5493 15.426L53.7534 15.5774C54.6593 16.3219 54.9169 17.5962 54.4175 18.6448L54.2993 18.8655C52.6806 21.5607 51.2889 24.3541 50.1274 27.2463L50.1284 27.2473C48.7764 30.6653 48.1141 34.4484 48.1489 38.6028V47.8235Z" fill="url(#paint0_linear_11_89096)" stroke="#CAFF33"/>
<defs>
<linearGradient id="paint0_linear_11_89096" x1="30.2064" y1="11.0002" x2="30.2064" y2="49.8238" gradientUnits="userSpaceOnUse">
<stop stop-color="#CAFF33"/>
<stop offset="1" stop-color="#191919"/>
</linearGradient>
</defs>
</svg>
